<mxfile host="app.diagrams.net" modified="2021-06-15T07:59:40.270Z" agent="5.0 (Windows NT 10.0; Win64; x64) AppleWebKit/537.36 (KHTML, like Gecko) Chrome/90.0.4430.212 Safari/537.36" etag="UfA5tktveRryqSZPIE56" version="14.7.4" type="github">
  <diagram name="Page-1" id="90a13364-a465-7bf4-72fc-28e22215d7a0">
    <mxGraphModel dx="1422" dy="762" grid="1" gridSize="11" guides="1" tooltips="1" connect="1" arrows="1" fold="1" page="1" pageScale="1.5" pageWidth="1169" pageHeight="826" background="none" math="0" shadow="0">
      <root>
        <mxCell id="0" style=";html=1;" />
        <mxCell id="1" style=";html=1;" parent="0" />
        <mxCell id="-iZUTilEa2WBl7ZFIHIT-264" value="" style="rounded=1;whiteSpace=wrap;html=1;comic=0;pointerEvents=1;strokeWidth=6;strokeColor=#787878;" parent="1" vertex="1">
          <mxGeometry x="1221" y="503" width="1067" height="554.5" as="geometry" />
        </mxCell>
        <mxCell id="-iZUTilEa2WBl7ZFIHIT-81" value="" style="rounded=1;whiteSpace=wrap;html=1;strokeWidth=6;strokeColor=#787878;" parent="1" vertex="1">
          <mxGeometry x="561" y="400" width="506" height="308" as="geometry" />
        </mxCell>
        <mxCell id="-iZUTilEa2WBl7ZFIHIT-80" value="" style="rounded=1;whiteSpace=wrap;html=1;strokeWidth=6;strokeColor=#757575;" parent="1" vertex="1">
          <mxGeometry x="297" y="749.5" width="858" height="493.5" as="geometry" />
        </mxCell>
        <mxCell id="-iZUTilEa2WBl7ZFIHIT-8" value="" style="rounded=0;whiteSpace=wrap;html=1;fillColor=#f5f5f5;strokeColor=#666666;fontColor=#333333;" parent="1" vertex="1">
          <mxGeometry x="935.5" y="511" width="80" height="168" as="geometry" />
        </mxCell>
        <mxCell id="-iZUTilEa2WBl7ZFIHIT-5" value="" style="edgeStyle=orthogonalEdgeStyle;rounded=0;orthogonalLoop=1;jettySize=auto;html=1;" parent="1" source="-iZUTilEa2WBl7ZFIHIT-1" target="-iZUTilEa2WBl7ZFIHIT-4" edge="1">
          <mxGeometry relative="1" as="geometry" />
        </mxCell>
        <mxCell id="-iZUTilEa2WBl7ZFIHIT-1" value="&lt;font style=&quot;font-size: 16px&quot;&gt;Bug Report&lt;/font&gt;" style="rounded=0;whiteSpace=wrap;html=1;fillColor=#ffe6cc;strokeColor=#d79b00;" parent="1" vertex="1">
          <mxGeometry x="585" y="423" width="93" height="61" as="geometry" />
        </mxCell>
        <mxCell id="-iZUTilEa2WBl7ZFIHIT-22" style="edgeStyle=orthogonalEdgeStyle;rounded=0;orthogonalLoop=1;jettySize=auto;html=1;entryX=0;entryY=0.5;entryDx=0;entryDy=0;" parent="1" source="-iZUTilEa2WBl7ZFIHIT-3" target="-iZUTilEa2WBl7ZFIHIT-8" edge="1">
          <mxGeometry relative="1" as="geometry" />
        </mxCell>
        <mxCell id="-iZUTilEa2WBl7ZFIHIT-3" value="&lt;font style=&quot;font-size: 16px&quot;&gt;Source Files&lt;/font&gt;" style="shape=cylinder3;whiteSpace=wrap;html=1;boundedLbl=1;backgroundOutline=1;size=15;fillColor=#dae8fc;strokeColor=#6c8ebf;" parent="1" vertex="1">
          <mxGeometry x="737" y="534" width="121" height="122" as="geometry" />
        </mxCell>
        <mxCell id="-iZUTilEa2WBl7ZFIHIT-6" value="" style="edgeStyle=orthogonalEdgeStyle;rounded=0;orthogonalLoop=1;jettySize=auto;html=1;exitX=0.5;exitY=1;exitDx=0;exitDy=0;" parent="1" source="-iZUTilEa2WBl7ZFIHIT-4" target="-iZUTilEa2WBl7ZFIHIT-3" edge="1">
          <mxGeometry relative="1" as="geometry">
            <mxPoint x="798" y="510" as="sourcePoint" />
          </mxGeometry>
        </mxCell>
        <mxCell id="-iZUTilEa2WBl7ZFIHIT-4" value="&lt;font style=&quot;font-size: 16px&quot;&gt;IR&lt;/font&gt;" style="rounded=1;whiteSpace=wrap;html=1;fillColor=#f8cecc;strokeColor=#b85450;" parent="1" vertex="1">
          <mxGeometry x="738" y="423" width="120" height="60" as="geometry" />
        </mxCell>
        <mxCell id="-iZUTilEa2WBl7ZFIHIT-9" value="&lt;font style=&quot;font-size: 16px&quot;&gt;s&lt;/font&gt;&lt;sub&gt;&lt;font style=&quot;font-size: 12px&quot;&gt;1&lt;/font&gt;&lt;/sub&gt;" style="ellipse;whiteSpace=wrap;html=1;aspect=fixed;" parent="1" vertex="1">
          <mxGeometry x="960.5" y="524" width="30" height="30" as="geometry" />
        </mxCell>
        <mxCell id="-iZUTilEa2WBl7ZFIHIT-25" value="Stage1" style="text;strokeColor=none;fillColor=none;html=1;fontSize=24;fontStyle=1;verticalAlign=middle;align=center;" parent="1" vertex="1">
          <mxGeometry x="600" y="650" width="100" height="40" as="geometry" />
        </mxCell>
        <UserObject label="&lt;font style=&quot;font-size: 18px&quot;&gt;Top k candidates cases&lt;/font&gt;" placeholders="1" name="Variable" id="-iZUTilEa2WBl7ZFIHIT-27">
          <mxCell style="text;html=1;strokeColor=none;fillColor=none;align=center;verticalAlign=middle;whiteSpace=wrap;overflow=hidden;" parent="1" vertex="1">
            <mxGeometry x="913" y="473" width="140" height="30" as="geometry" />
          </mxCell>
        </UserObject>
        <mxCell id="-iZUTilEa2WBl7ZFIHIT-32" value="" style="edgeStyle=orthogonalEdgeStyle;rounded=0;orthogonalLoop=1;jettySize=auto;html=1;" parent="1" source="-iZUTilEa2WBl7ZFIHIT-28" target="-iZUTilEa2WBl7ZFIHIT-30" edge="1">
          <mxGeometry relative="1" as="geometry" />
        </mxCell>
        <mxCell id="-iZUTilEa2WBl7ZFIHIT-28" value="&lt;font style=&quot;font-size: 16px&quot;&gt;Report&lt;/font&gt;" style="rounded=0;whiteSpace=wrap;html=1;" parent="1" vertex="1">
          <mxGeometry x="465" y="1171.5" width="126" height="60" as="geometry" />
        </mxCell>
        <mxCell id="-iZUTilEa2WBl7ZFIHIT-30" value="" style="shape=partialRectangle;whiteSpace=wrap;html=1;bottom=1;right=1;left=1;top=0;fillColor=none;routingCenterX=-0.5;" parent="1" vertex="1">
          <mxGeometry x="468" y="1108.5" width="120" height="27" as="geometry" />
        </mxCell>
        <mxCell id="-iZUTilEa2WBl7ZFIHIT-35" value="&lt;font style=&quot;font-size: 16px&quot;&gt;Tok&lt;/font&gt;&lt;sub&gt;1&lt;/sub&gt;" style="rounded=1;whiteSpace=wrap;html=1;fillColor=#e1d5e7;strokeColor=#9673a6;" parent="1" vertex="1">
          <mxGeometry x="435" y="1081" width="65" height="27" as="geometry" />
        </mxCell>
        <mxCell id="-iZUTilEa2WBl7ZFIHIT-37" value="&lt;font style=&quot;font-size: 16px&quot;&gt;Tok&lt;/font&gt;&lt;sub&gt;M&lt;/sub&gt;" style="rounded=1;whiteSpace=wrap;html=1;fillColor=#e1d5e7;strokeColor=#9673a6;" parent="1" vertex="1">
          <mxGeometry x="556" y="1081" width="65" height="27" as="geometry" />
        </mxCell>
        <mxCell id="-iZUTilEa2WBl7ZFIHIT-41" value="&lt;font style=&quot;font-size: 16px&quot;&gt;[SEP]&lt;/font&gt;" style="rounded=1;whiteSpace=wrap;html=1;fillColor=#e1d5e7;strokeColor=#9673a6;" parent="1" vertex="1">
          <mxGeometry x="644" y="1081.5" width="65" height="27" as="geometry" />
        </mxCell>
        <mxCell id="-iZUTilEa2WBl7ZFIHIT-42" value="&lt;font style=&quot;font-size: 16px&quot;&gt;[CLS]&lt;/font&gt;" style="rounded=1;whiteSpace=wrap;html=1;fillColor=#e1d5e7;strokeColor=#9673a6;" parent="1" vertex="1">
          <mxGeometry x="358" y="1081.5" width="65" height="27" as="geometry" />
        </mxCell>
        <mxCell id="-iZUTilEa2WBl7ZFIHIT-43" value="&lt;font style=&quot;font-size: 22px&quot;&gt;CodeBert&lt;/font&gt;" style="shape=ext;double=1;rounded=0;whiteSpace=wrap;html=1;fillColor=#ffe6cc;strokeColor=#d79b00;" parent="1" vertex="1">
          <mxGeometry x="346.5" y="905" width="374" height="146" as="geometry" />
        </mxCell>
        <mxCell id="-iZUTilEa2WBl7ZFIHIT-44" value="&lt;font style=&quot;font-size: 16px&quot;&gt;E&lt;/font&gt;&lt;sub&gt;[CLS]&lt;/sub&gt;" style="rounded=1;whiteSpace=wrap;html=1;fillColor=#f8cecc;strokeColor=#b85450;strokeWidth=1;perimeterSpacing=4;" parent="1" vertex="1">
          <mxGeometry x="358" y="998.5" width="65" height="27" as="geometry" />
        </mxCell>
        <mxCell id="-iZUTilEa2WBl7ZFIHIT-45" value="&lt;font style=&quot;font-size: 16px&quot;&gt;E&lt;/font&gt;&lt;sub&gt;1&lt;/sub&gt;" style="rounded=1;whiteSpace=wrap;html=1;fillColor=#f8cecc;strokeColor=#b85450;strokeWidth=1;perimeterSpacing=4;" parent="1" vertex="1">
          <mxGeometry x="435" y="998.5" width="65" height="27" as="geometry" />
        </mxCell>
        <mxCell id="-iZUTilEa2WBl7ZFIHIT-47" value="&lt;font style=&quot;font-size: 16px&quot;&gt;E&lt;/font&gt;&lt;sub&gt;[SEP]&lt;/sub&gt;" style="rounded=1;whiteSpace=wrap;html=1;fillColor=#f8cecc;strokeColor=#b85450;strokeWidth=1;perimeterSpacing=4;" parent="1" vertex="1">
          <mxGeometry x="644" y="998.5" width="65" height="27" as="geometry" />
        </mxCell>
        <mxCell id="-iZUTilEa2WBl7ZFIHIT-50" value="&lt;font style=&quot;font-size: 16px&quot;&gt;E&lt;/font&gt;&lt;span style=&quot;font-size: 10px&quot;&gt;&lt;sub&gt;M&lt;/sub&gt;&lt;/span&gt;" style="rounded=1;whiteSpace=wrap;html=1;fillColor=#f8cecc;strokeColor=#b85450;strokeWidth=1;perimeterSpacing=4;" parent="1" vertex="1">
          <mxGeometry x="556" y="998.5" width="65" height="27" as="geometry" />
        </mxCell>
        <mxCell id="-iZUTilEa2WBl7ZFIHIT-53" value="&lt;font style=&quot;font-size: 16px&quot;&gt;C&lt;/font&gt;" style="rounded=1;whiteSpace=wrap;html=1;fillColor=#dae8fc;strokeColor=#6c8ebf;" parent="1" vertex="1">
          <mxGeometry x="358" y="915.5" width="65" height="27" as="geometry" />
        </mxCell>
        <mxCell id="-iZUTilEa2WBl7ZFIHIT-54" value="&lt;font style=&quot;font-size: 16px&quot;&gt;T&lt;/font&gt;&lt;sub style=&quot;font-size: 10px&quot;&gt;1&lt;/sub&gt;" style="rounded=1;whiteSpace=wrap;html=1;fillColor=#dae8fc;strokeColor=#6c8ebf;" parent="1" vertex="1">
          <mxGeometry x="435" y="915.5" width="65" height="27" as="geometry" />
        </mxCell>
        <mxCell id="-iZUTilEa2WBl7ZFIHIT-55" value="&lt;font style=&quot;font-size: 16px&quot;&gt;T&lt;/font&gt;&lt;sub&gt;&lt;font style=&quot;font-size: 10px&quot;&gt;[SEP]&lt;/font&gt;&lt;/sub&gt;" style="rounded=1;whiteSpace=wrap;html=1;fillColor=#dae8fc;strokeColor=#6c8ebf;" parent="1" vertex="1">
          <mxGeometry x="644" y="915.5" width="65" height="27" as="geometry" />
        </mxCell>
        <mxCell id="-iZUTilEa2WBl7ZFIHIT-56" value="&lt;font style=&quot;font-size: 16px&quot;&gt;T&lt;/font&gt;&lt;sub style=&quot;font-size: 10px&quot;&gt;M&lt;/sub&gt;" style="rounded=1;whiteSpace=wrap;html=1;fillColor=#dae8fc;strokeColor=#6c8ebf;" parent="1" vertex="1">
          <mxGeometry x="556" y="915.5" width="65" height="27" as="geometry" />
        </mxCell>
        <mxCell id="-iZUTilEa2WBl7ZFIHIT-59" value="&lt;font style=&quot;font-size: 16px&quot;&gt;V&lt;sub&gt;r&lt;/sub&gt;&lt;/font&gt;" style="rounded=0;whiteSpace=wrap;html=1;fillColor=#d5e8d4;strokeColor=#82b366;" parent="1" vertex="1">
          <mxGeometry x="344" y="809.5" width="96" height="53" as="geometry" />
        </mxCell>
        <mxCell id="-iZUTilEa2WBl7ZFIHIT-60" value="" style="shape=flexArrow;endArrow=classic;html=1;fillColor=#f8cecc;strokeColor=#b85450;" parent="1" edge="1">
          <mxGeometry width="50" height="50" relative="1" as="geometry">
            <mxPoint x="390" y="904.5" as="sourcePoint" />
            <mxPoint x="390" y="860.5" as="targetPoint" />
            <Array as="points">
              <mxPoint x="390" y="880" />
            </Array>
          </mxGeometry>
        </mxCell>
        <mxCell id="-iZUTilEa2WBl7ZFIHIT-61" value="" style="shape=flexArrow;endArrow=classic;html=1;" parent="1" edge="1">
          <mxGeometry width="50" height="50" relative="1" as="geometry">
            <mxPoint x="393" y="1075.5" as="sourcePoint" />
            <mxPoint x="393" y="1031.5" as="targetPoint" />
          </mxGeometry>
        </mxCell>
        <mxCell id="-iZUTilEa2WBl7ZFIHIT-62" value="" style="shape=flexArrow;endArrow=classic;html=1;" parent="1" edge="1">
          <mxGeometry width="50" height="50" relative="1" as="geometry">
            <mxPoint x="468" y="1075.5" as="sourcePoint" />
            <mxPoint x="468" y="1031.5" as="targetPoint" />
          </mxGeometry>
        </mxCell>
        <mxCell id="-iZUTilEa2WBl7ZFIHIT-63" value="" style="shape=flexArrow;endArrow=classic;html=1;" parent="1" edge="1">
          <mxGeometry width="50" height="50" relative="1" as="geometry">
            <mxPoint x="588" y="1075.5" as="sourcePoint" />
            <mxPoint x="588" y="1031.5" as="targetPoint" />
          </mxGeometry>
        </mxCell>
        <mxCell id="-iZUTilEa2WBl7ZFIHIT-65" value="" style="shape=flexArrow;endArrow=classic;html=1;" parent="1" edge="1">
          <mxGeometry width="50" height="50" relative="1" as="geometry">
            <mxPoint x="683" y="1075.5" as="sourcePoint" />
            <mxPoint x="683" y="1031.5" as="targetPoint" />
          </mxGeometry>
        </mxCell>
        <mxCell id="-iZUTilEa2WBl7ZFIHIT-69" value="Stage2" style="text;strokeColor=none;fillColor=none;html=1;fontSize=24;fontStyle=1;verticalAlign=middle;align=center;" parent="1" vertex="1">
          <mxGeometry x="998" y="809.5" width="100" height="40" as="geometry" />
        </mxCell>
        <mxCell id="-iZUTilEa2WBl7ZFIHIT-71" value="" style="shape=waypoint;sketch=0;size=6;pointerEvents=1;points=[];fillColor=none;resizable=0;rotatable=0;perimeter=centerPerimeter;snapToPoint=1;strokeWidth=1;strokeColor=#787878;" parent="1" vertex="1">
          <mxGeometry x="955.5" y="592" width="40" height="40" as="geometry" />
        </mxCell>
        <mxCell id="-iZUTilEa2WBl7ZFIHIT-82" value="&lt;span style=&quot;font-size: 16px&quot;&gt;s&lt;/span&gt;&lt;font style=&quot;font-size: 12px&quot;&gt;&lt;sub&gt;2&lt;/sub&gt;&lt;/font&gt;" style="ellipse;whiteSpace=wrap;html=1;aspect=fixed;" parent="1" vertex="1">
          <mxGeometry x="960.5" y="566" width="30" height="30" as="geometry" />
        </mxCell>
        <mxCell id="-iZUTilEa2WBl7ZFIHIT-83" value="&lt;font style=&quot;font-size: 16px&quot;&gt;s&lt;/font&gt;&lt;font style=&quot;font-size: 12px&quot;&gt;&lt;sub&gt;k&lt;/sub&gt;&lt;/font&gt;" style="ellipse;whiteSpace=wrap;html=1;aspect=fixed;" parent="1" vertex="1">
          <mxGeometry x="960.5" y="646" width="30" height="30" as="geometry" />
        </mxCell>
        <mxCell id="-iZUTilEa2WBl7ZFIHIT-84" value="" style="shape=waypoint;sketch=0;size=6;pointerEvents=1;points=[];fillColor=none;resizable=0;rotatable=0;perimeter=centerPerimeter;snapToPoint=1;strokeWidth=1;strokeColor=#787878;" parent="1" vertex="1">
          <mxGeometry x="955.5" y="608" width="40" height="40" as="geometry" />
        </mxCell>
        <mxCell id="-iZUTilEa2WBl7ZFIHIT-89" value="" style="shape=waypoint;sketch=0;size=6;pointerEvents=1;points=[];fillColor=none;resizable=0;rotatable=0;perimeter=centerPerimeter;snapToPoint=1;strokeWidth=1;strokeColor=#787878;" parent="1" vertex="1">
          <mxGeometry x="502.5" y="992" width="40" height="40" as="geometry" />
        </mxCell>
        <mxCell id="-iZUTilEa2WBl7ZFIHIT-90" value="" style="shape=waypoint;sketch=0;size=6;pointerEvents=1;points=[];fillColor=none;resizable=0;rotatable=0;perimeter=centerPerimeter;snapToPoint=1;strokeWidth=1;strokeColor=#787878;" parent="1" vertex="1">
          <mxGeometry x="513.5" y="992" width="40" height="40" as="geometry" />
        </mxCell>
        <mxCell id="-iZUTilEa2WBl7ZFIHIT-91" value="" style="shape=waypoint;sketch=0;size=6;pointerEvents=1;points=[];fillColor=none;resizable=0;rotatable=0;perimeter=centerPerimeter;snapToPoint=1;strokeWidth=1;strokeColor=#787878;" parent="1" vertex="1">
          <mxGeometry x="502.5" y="909" width="40" height="40" as="geometry" />
        </mxCell>
        <mxCell id="-iZUTilEa2WBl7ZFIHIT-92" value="" style="shape=waypoint;sketch=0;size=6;pointerEvents=1;points=[];fillColor=none;resizable=0;rotatable=0;perimeter=centerPerimeter;snapToPoint=1;strokeWidth=1;strokeColor=#787878;" parent="1" vertex="1">
          <mxGeometry x="513.5" y="909" width="40" height="40" as="geometry" />
        </mxCell>
        <UserObject label="&lt;font style=&quot;font-size: 16px&quot;&gt;Report=(summary,description)&lt;/font&gt;" placeholders="1" name="Variable" id="-iZUTilEa2WBl7ZFIHIT-94">
          <mxCell style="text;html=1;strokeColor=#6c8ebf;fillColor=#dae8fc;align=center;verticalAlign=middle;whiteSpace=wrap;overflow=hidden;" parent="1" vertex="1">
            <mxGeometry x="1287" y="859.5" width="253" height="57.5" as="geometry" />
          </mxCell>
        </UserObject>
        <UserObject label="&lt;font style=&quot;font-size: 16px&quot;&gt;Source File=(method&lt;sub&gt;1&lt;/sub&gt;,...,method&lt;sub&gt;k&lt;/sub&gt;)&lt;/font&gt;" placeholders="1" name="Variable" id="-iZUTilEa2WBl7ZFIHIT-95">
          <mxCell style="text;html=1;strokeColor=#6c8ebf;fillColor=#dae8fc;align=center;verticalAlign=middle;whiteSpace=wrap;overflow=hidden;" parent="1" vertex="1">
            <mxGeometry x="1562" y="859.5" width="275" height="58" as="geometry" />
          </mxCell>
        </UserObject>
        <UserObject label="&lt;font style=&quot;font-size: 16px&quot;&gt;summary&lt;/font&gt;" placeholders="1" name="Variable" id="-iZUTilEa2WBl7ZFIHIT-126">
          <mxCell style="text;html=1;strokeColor=none;fillColor=none;align=center;verticalAlign=middle;whiteSpace=wrap;overflow=hidden;" parent="1" vertex="1">
            <mxGeometry x="1232" y="606.25" width="80" height="23.5" as="geometry" />
          </mxCell>
        </UserObject>
        <UserObject label="&lt;font style=&quot;font-size: 16px&quot;&gt;description&lt;/font&gt;" placeholders="1" name="Variable" id="-iZUTilEa2WBl7ZFIHIT-127">
          <mxCell style="text;html=1;strokeColor=none;fillColor=none;align=center;verticalAlign=middle;whiteSpace=wrap;overflow=hidden;" parent="1" vertex="1">
            <mxGeometry x="1232" y="666.25" width="80" height="34" as="geometry" />
          </mxCell>
        </UserObject>
        <UserObject label="&lt;font style=&quot;font-size: 16px&quot;&gt;method&lt;sub&gt;1&lt;/sub&gt;&lt;/font&gt;" placeholders="1" name="Variable" id="-iZUTilEa2WBl7ZFIHIT-128">
          <mxCell style="text;html=1;strokeColor=none;fillColor=none;align=center;verticalAlign=middle;whiteSpace=wrap;overflow=hidden;" parent="1" vertex="1">
            <mxGeometry x="1331" y="552.75" width="80" height="23.5" as="geometry" />
          </mxCell>
        </UserObject>
        <UserObject label="&lt;font style=&quot;font-size: 16px&quot;&gt;method&lt;/font&gt;&lt;font style=&quot;font-size: 13.3333px&quot;&gt;&lt;sub&gt;k&lt;/sub&gt;&lt;/font&gt;" placeholders="1" name="Variable" id="-iZUTilEa2WBl7ZFIHIT-129">
          <mxCell style="text;html=1;strokeColor=none;fillColor=none;align=center;verticalAlign=middle;whiteSpace=wrap;overflow=hidden;" parent="1" vertex="1">
            <mxGeometry x="1634.5" y="552.75" width="80" height="23.5" as="geometry" />
          </mxCell>
        </UserObject>
        <mxCell id="-iZUTilEa2WBl7ZFIHIT-130" value="" style="shape=waypoint;sketch=0;size=6;pointerEvents=1;points=[];fillColor=none;resizable=0;rotatable=0;perimeter=centerPerimeter;snapToPoint=1;strokeWidth=1;strokeColor=#787878;" parent="1" vertex="1">
          <mxGeometry x="1496" y="544.5" width="40" height="40" as="geometry" />
        </mxCell>
        <mxCell id="-iZUTilEa2WBl7ZFIHIT-131" value="" style="shape=waypoint;sketch=0;size=6;pointerEvents=1;points=[];fillColor=none;resizable=0;rotatable=0;perimeter=centerPerimeter;snapToPoint=1;strokeWidth=1;strokeColor=#787878;" parent="1" vertex="1">
          <mxGeometry x="1532.5" y="544.5" width="40" height="40" as="geometry" />
        </mxCell>
        <mxCell id="-iZUTilEa2WBl7ZFIHIT-132" value="" style="shape=waypoint;sketch=0;size=6;pointerEvents=1;points=[];fillColor=none;resizable=0;rotatable=0;perimeter=centerPerimeter;snapToPoint=1;strokeWidth=1;strokeColor=#787878;" parent="1" vertex="1">
          <mxGeometry x="1463" y="544.5" width="40" height="40" as="geometry" />
        </mxCell>
        <mxCell id="-iZUTilEa2WBl7ZFIHIT-133" value="&lt;font style=&quot;font-size: 16px&quot;&gt;&lt;b&gt;CodeBert&lt;/b&gt;&lt;/font&gt;" style="rounded=1;whiteSpace=wrap;html=1;strokeColor=#b85450;strokeWidth=1;fillColor=#f8cecc;" parent="1" vertex="1">
          <mxGeometry x="1339.25" y="738.5" width="148.5" height="88" as="geometry" />
        </mxCell>
        <mxCell id="-iZUTilEa2WBl7ZFIHIT-135" value="" style="endArrow=classic;html=1;entryX=0.5;entryY=1;entryDx=0;entryDy=0;exitX=0.5;exitY=0;exitDx=0;exitDy=0;" parent="1" source="-iZUTilEa2WBl7ZFIHIT-95" target="r0zvoIGPUsBEDC_ozORA-31" edge="1">
          <mxGeometry width="50" height="50" relative="1" as="geometry">
            <mxPoint x="1595" y="859.5" as="sourcePoint" />
            <mxPoint x="1551" y="815.5" as="targetPoint" />
          </mxGeometry>
        </mxCell>
        <mxCell id="-iZUTilEa2WBl7ZFIHIT-136" value="&lt;font style=&quot;font-size: 16px&quot;&gt;Max&lt;/font&gt;" style="rounded=1;whiteSpace=wrap;html=1;strokeColor=#82b366;strokeWidth=1;fillColor=#d5e8d4;" parent="1" vertex="1">
          <mxGeometry x="1782" y="534.5" width="120" height="60" as="geometry" />
        </mxCell>
        <mxCell id="-iZUTilEa2WBl7ZFIHIT-137" value="" style="shape=flexArrow;endArrow=classic;html=1;fillColor=#d5e8d4;strokeColor=#82b366;" parent="1" edge="1">
          <mxGeometry width="50" height="50" relative="1" as="geometry">
            <mxPoint x="1776" y="628.75" as="sourcePoint" />
            <mxPoint x="1947" y="629.25" as="targetPoint" />
          </mxGeometry>
        </mxCell>
        <mxCell id="-iZUTilEa2WBl7ZFIHIT-138" value="" style="endArrow=classic;html=1;exitX=0.5;exitY=0;exitDx=0;exitDy=0;" parent="1" source="-iZUTilEa2WBl7ZFIHIT-133" edge="1">
          <mxGeometry width="50" height="50" relative="1" as="geometry">
            <mxPoint x="1408" y="755.5" as="sourcePoint" />
            <mxPoint x="1542" y="705.5" as="targetPoint" />
          </mxGeometry>
        </mxCell>
        <mxCell id="-iZUTilEa2WBl7ZFIHIT-167" value="" style="shape=table;html=1;whiteSpace=wrap;startSize=0;container=1;collapsible=0;childLayout=tableLayout;strokeColor=#d6b656;strokeWidth=1;resizeWidth=0;resizeHeight=1;treeFolding=0;treeMoving=0;resizable=0;rotatable=0;fillColor=#fff2cc;" parent="1" vertex="1">
          <mxGeometry x="1947" y="584.5" width="60" height="133.5" as="geometry" />
        </mxCell>
        <mxCell id="-iZUTilEa2WBl7ZFIHIT-204" style="shape=partialRectangle;html=1;whiteSpace=wrap;collapsible=0;dropTarget=0;pointerEvents=0;fillColor=none;top=0;left=0;bottom=0;right=0;points=[[0,0.5],[1,0.5]];portConstraint=eastwest;" parent="-iZUTilEa2WBl7ZFIHIT-167" vertex="1">
          <mxGeometry width="60" height="67" as="geometry" />
        </mxCell>
        <mxCell id="-iZUTilEa2WBl7ZFIHIT-205" value="&lt;font style=&quot;font-size: 16px&quot;&gt;F&lt;/font&gt;&lt;sub&gt;sum&lt;/sub&gt;" style="shape=partialRectangle;html=1;whiteSpace=wrap;connectable=0;fillColor=none;top=0;left=0;bottom=0;right=0;overflow=hidden;flipV=0;" parent="-iZUTilEa2WBl7ZFIHIT-204" vertex="1">
          <mxGeometry width="60" height="67" as="geometry" />
        </mxCell>
        <mxCell id="-iZUTilEa2WBl7ZFIHIT-231" style="shape=partialRectangle;html=1;whiteSpace=wrap;collapsible=0;dropTarget=0;pointerEvents=0;fillColor=none;top=0;left=0;bottom=0;right=0;points=[[0,0.5],[1,0.5]];portConstraint=eastwest;" parent="-iZUTilEa2WBl7ZFIHIT-167" vertex="1">
          <mxGeometry y="67" width="60" height="67" as="geometry" />
        </mxCell>
        <mxCell id="-iZUTilEa2WBl7ZFIHIT-232" value="&lt;font style=&quot;font-size: 16px&quot;&gt;F&lt;/font&gt;&lt;font style=&quot;font-size: 12px&quot;&gt;&lt;sub&gt;desc&lt;/sub&gt;&lt;/font&gt;" style="shape=partialRectangle;html=1;whiteSpace=wrap;connectable=0;fillColor=none;top=0;left=0;bottom=0;right=0;overflow=hidden;flipV=0;" parent="-iZUTilEa2WBl7ZFIHIT-231" vertex="1">
          <mxGeometry width="60" height="67" as="geometry" />
        </mxCell>
        <mxCell id="-iZUTilEa2WBl7ZFIHIT-234" value="" style="shape=table;html=1;whiteSpace=wrap;startSize=0;container=1;collapsible=0;childLayout=tableLayout;strokeColor=#d6b656;strokeWidth=1;resizeWidth=0;resizeHeight=1;treeFolding=0;treeMoving=0;resizable=0;rotatable=0;fillColor=#fff2cc;" parent="1" vertex="1">
          <mxGeometry x="1947" y="749.5" width="60" height="267.5" as="geometry" />
        </mxCell>
        <mxCell id="-iZUTilEa2WBl7ZFIHIT-249" style="shape=partialRectangle;html=1;whiteSpace=wrap;collapsible=0;dropTarget=0;pointerEvents=0;fillColor=none;top=0;left=0;bottom=0;right=0;points=[[0,0.5],[1,0.5]];portConstraint=eastwest;" parent="-iZUTilEa2WBl7ZFIHIT-234" vertex="1">
          <mxGeometry width="60" height="67" as="geometry" />
        </mxCell>
        <mxCell id="-iZUTilEa2WBl7ZFIHIT-250" value="&lt;font style=&quot;font-size: 16px&quot;&gt;F&lt;/font&gt;&lt;font style=&quot;font-size: 10px&quot;&gt;&lt;sub&gt;1&lt;/sub&gt;&lt;/font&gt;" style="shape=partialRectangle;html=1;whiteSpace=wrap;connectable=0;fillColor=none;top=0;left=0;bottom=0;right=0;overflow=hidden;flipV=0;" parent="-iZUTilEa2WBl7ZFIHIT-249" vertex="1">
          <mxGeometry width="60" height="67" as="geometry" />
        </mxCell>
        <mxCell id="-iZUTilEa2WBl7ZFIHIT-247" style="shape=partialRectangle;html=1;whiteSpace=wrap;collapsible=0;dropTarget=0;pointerEvents=0;fillColor=none;top=0;left=0;bottom=0;right=0;points=[[0,0.5],[1,0.5]];portConstraint=eastwest;" parent="-iZUTilEa2WBl7ZFIHIT-234" vertex="1">
          <mxGeometry y="67" width="60" height="67" as="geometry" />
        </mxCell>
        <mxCell id="-iZUTilEa2WBl7ZFIHIT-248" value="&lt;font style=&quot;font-size: 16px&quot;&gt;F&lt;/font&gt;&lt;font&gt;&lt;sub&gt;2&lt;/sub&gt;&lt;/font&gt;" style="shape=partialRectangle;html=1;whiteSpace=wrap;connectable=0;fillColor=none;top=0;left=0;bottom=0;right=0;overflow=hidden;flipV=0;" parent="-iZUTilEa2WBl7ZFIHIT-247" vertex="1">
          <mxGeometry width="60" height="67" as="geometry" />
        </mxCell>
        <mxCell id="-iZUTilEa2WBl7ZFIHIT-235" style="shape=partialRectangle;html=1;whiteSpace=wrap;collapsible=0;dropTarget=0;pointerEvents=0;fillColor=none;top=0;left=0;bottom=0;right=0;points=[[0,0.5],[1,0.5]];portConstraint=eastwest;" parent="-iZUTilEa2WBl7ZFIHIT-234" vertex="1">
          <mxGeometry y="134" width="60" height="67" as="geometry" />
        </mxCell>
        <mxCell id="-iZUTilEa2WBl7ZFIHIT-236" value="" style="shape=partialRectangle;html=1;whiteSpace=wrap;connectable=0;fillColor=none;top=0;left=0;bottom=0;right=0;overflow=hidden;flipV=0;" parent="-iZUTilEa2WBl7ZFIHIT-235" vertex="1">
          <mxGeometry width="60" height="67" as="geometry" />
        </mxCell>
        <mxCell id="-iZUTilEa2WBl7ZFIHIT-237" style="shape=partialRectangle;html=1;whiteSpace=wrap;collapsible=0;dropTarget=0;pointerEvents=0;fillColor=none;top=0;left=0;bottom=0;right=0;points=[[0,0.5],[1,0.5]];portConstraint=eastwest;" parent="-iZUTilEa2WBl7ZFIHIT-234" vertex="1">
          <mxGeometry y="201" width="60" height="67" as="geometry" />
        </mxCell>
        <mxCell id="-iZUTilEa2WBl7ZFIHIT-238" value="&lt;font style=&quot;font-size: 16px&quot;&gt;F&lt;/font&gt;&lt;font style=&quot;font-size: 10px&quot;&gt;19&lt;/font&gt;" style="shape=partialRectangle;html=1;whiteSpace=wrap;connectable=0;fillColor=none;top=0;left=0;bottom=0;right=0;overflow=hidden;flipV=0;" parent="-iZUTilEa2WBl7ZFIHIT-237" vertex="1">
          <mxGeometry width="60" height="67" as="geometry" />
        </mxCell>
        <mxCell id="-iZUTilEa2WBl7ZFIHIT-251" value="" style="shape=waypoint;sketch=0;size=6;pointerEvents=1;points=[];fillColor=none;resizable=0;rotatable=0;perimeter=centerPerimeter;snapToPoint=1;strokeWidth=1;strokeColor=#787878;" parent="1" vertex="1">
          <mxGeometry x="1957" y="877.5" width="40" height="40" as="geometry" />
        </mxCell>
        <mxCell id="-iZUTilEa2WBl7ZFIHIT-252" value="" style="shape=waypoint;sketch=0;size=6;pointerEvents=1;points=[];fillColor=none;resizable=0;rotatable=0;perimeter=centerPerimeter;snapToPoint=1;strokeWidth=1;strokeColor=#787878;" parent="1" vertex="1">
          <mxGeometry x="1958" y="904.5" width="40" height="40" as="geometry" />
        </mxCell>
        <mxCell id="-iZUTilEa2WBl7ZFIHIT-253" value="&lt;span style=&quot;font-size: 16px&quot;&gt;IR Features&lt;/span&gt;" style="rounded=1;whiteSpace=wrap;html=1;strokeColor=#d79b00;strokeWidth=1;fillColor=#ffe6cc;" parent="1" vertex="1">
          <mxGeometry x="1815" y="958.5" width="120" height="60" as="geometry" />
        </mxCell>
        <mxCell id="-iZUTilEa2WBl7ZFIHIT-254" value="" style="shape=flexArrow;endArrow=classic;html=1;endWidth=42;endSize=7;width=25;fillColor=#fff2cc;strokeColor=#d6b656;" parent="1" edge="1">
          <mxGeometry width="50" height="50" relative="1" as="geometry">
            <mxPoint x="2024" y="801.5" as="sourcePoint" />
            <mxPoint x="2090" y="801.5" as="targetPoint" />
            <Array as="points">
              <mxPoint x="2101" y="801.5" />
            </Array>
          </mxGeometry>
        </mxCell>
        <mxCell id="-iZUTilEa2WBl7ZFIHIT-255" value="" style="shape=flexArrow;endArrow=classic;html=1;fillColor=#d5e8d4;strokeColor=#82b366;" parent="1" edge="1">
          <mxGeometry width="50" height="50" relative="1" as="geometry">
            <mxPoint x="1776" y="682.75" as="sourcePoint" />
            <mxPoint x="1947" y="683.25" as="targetPoint" />
          </mxGeometry>
        </mxCell>
        <mxCell id="-iZUTilEa2WBl7ZFIHIT-256" value="&lt;p&gt;&lt;font style=&quot;font-size: 16px&quot;&gt;MLP&lt;/font&gt;&lt;/p&gt;" style="rounded=0;whiteSpace=wrap;html=1;comic=0;pointerEvents=1;strokeColor=#6c8ebf;strokeWidth=1;fillColor=#dae8fc;" parent="1" vertex="1">
          <mxGeometry x="2101" y="650.5" width="44" height="319" as="geometry" />
        </mxCell>
        <mxCell id="-iZUTilEa2WBl7ZFIHIT-258" value="" style="shape=flexArrow;endArrow=classic;html=1;fillColor=#dae8fc;strokeColor=#6c8ebf;" parent="1" edge="1">
          <mxGeometry width="50" height="50" relative="1" as="geometry">
            <mxPoint x="2156" y="801.51" as="sourcePoint" />
            <mxPoint x="2200" y="801.5" as="targetPoint" />
          </mxGeometry>
        </mxCell>
        <mxCell id="-iZUTilEa2WBl7ZFIHIT-259" value="&lt;font style=&quot;font-size: 17px&quot;&gt;score&lt;/font&gt;" style="ellipse;whiteSpace=wrap;html=1;comic=0;pointerEvents=1;strokeColor=#82b366;strokeWidth=1;fillColor=#d5e8d4;" parent="1" vertex="1">
          <mxGeometry x="2211" y="780.12" width="65" height="43.75" as="geometry" />
        </mxCell>
        <mxCell id="-iZUTilEa2WBl7ZFIHIT-134" value="" style="endArrow=classic;html=1;entryX=0.5;entryY=1;entryDx=0;entryDy=0;" parent="1" source="-iZUTilEa2WBl7ZFIHIT-94" target="-iZUTilEa2WBl7ZFIHIT-133" edge="1">
          <mxGeometry width="50" height="50" relative="1" as="geometry">
            <mxPoint x="1441" y="859.5" as="sourcePoint" />
            <mxPoint x="1529" y="815.5" as="targetPoint" />
          </mxGeometry>
        </mxCell>
        <mxCell id="-iZUTilEa2WBl7ZFIHIT-265" value="Stage3" style="text;strokeColor=none;fillColor=none;html=1;fontSize=24;fontStyle=1;verticalAlign=middle;align=center;" parent="1" vertex="1">
          <mxGeometry x="1237.5" y="1000.5" width="100" height="40" as="geometry" />
        </mxCell>
        <mxCell id="-iZUTilEa2WBl7ZFIHIT-266" value="" style="shape=flexArrow;endArrow=classic;html=1;fillColor=#f8cecc;strokeColor=#b85450;" parent="1" edge="1">
          <mxGeometry width="50" height="50" relative="1" as="geometry">
            <mxPoint x="1095" y="632" as="sourcePoint" />
            <mxPoint x="1199" y="632" as="targetPoint" />
          </mxGeometry>
        </mxCell>
        <mxCell id="-iZUTilEa2WBl7ZFIHIT-269" value="" style="shape=table;html=1;whiteSpace=wrap;startSize=0;container=1;collapsible=0;childLayout=tableLayout;rounded=0;shadow=0;comic=0;pointerEvents=1;strokeWidth=1;backgroundOutline=0;strokeColor=#FFB570;" parent="1" vertex="1">
          <mxGeometry x="1342" y="597.25" width="385.75" height="103" as="geometry" />
        </mxCell>
        <mxCell id="-iZUTilEa2WBl7ZFIHIT-270" value="" style="shape=partialRectangle;html=1;whiteSpace=wrap;collapsible=0;dropTarget=0;pointerEvents=0;fillColor=none;top=0;left=0;bottom=0;right=0;points=[[0,0.5],[1,0.5]];portConstraint=eastwest;" parent="-iZUTilEa2WBl7ZFIHIT-269" vertex="1">
          <mxGeometry width="385.75" height="53" as="geometry" />
        </mxCell>
        <mxCell id="-iZUTilEa2WBl7ZFIHIT-271" value="" style="shape=partialRectangle;html=1;whiteSpace=wrap;connectable=0;fillColor=#d5e8d4;top=0;left=0;bottom=0;right=0;overflow=hidden;strokeColor=#82b366;" parent="-iZUTilEa2WBl7ZFIHIT-270" vertex="1">
          <mxGeometry width="128" height="53" as="geometry" />
        </mxCell>
        <mxCell id="-iZUTilEa2WBl7ZFIHIT-272" value="" style="shape=partialRectangle;html=1;whiteSpace=wrap;connectable=0;fillColor=#d5e8d4;top=0;left=0;bottom=0;right=0;overflow=hidden;strokeColor=#82b366;" parent="-iZUTilEa2WBl7ZFIHIT-270" vertex="1">
          <mxGeometry x="128" width="130" height="53" as="geometry" />
        </mxCell>
        <mxCell id="-iZUTilEa2WBl7ZFIHIT-273" value="" style="shape=partialRectangle;html=1;whiteSpace=wrap;connectable=0;fillColor=#d5e8d4;top=0;left=0;bottom=0;right=0;overflow=hidden;strokeColor=#82b366;" parent="-iZUTilEa2WBl7ZFIHIT-270" vertex="1">
          <mxGeometry x="258" width="128" height="53" as="geometry" />
        </mxCell>
        <mxCell id="-iZUTilEa2WBl7ZFIHIT-274" value="" style="shape=partialRectangle;html=1;whiteSpace=wrap;collapsible=0;dropTarget=0;pointerEvents=0;fillColor=none;top=0;left=0;bottom=0;right=0;points=[[0,0.5],[1,0.5]];portConstraint=eastwest;" parent="-iZUTilEa2WBl7ZFIHIT-269" vertex="1">
          <mxGeometry y="53" width="385.75" height="50" as="geometry" />
        </mxCell>
        <mxCell id="-iZUTilEa2WBl7ZFIHIT-275" value="" style="shape=partialRectangle;html=1;whiteSpace=wrap;connectable=0;fillColor=none;top=0;left=0;bottom=0;right=0;overflow=hidden;" parent="-iZUTilEa2WBl7ZFIHIT-274" vertex="1">
          <mxGeometry width="128" height="50" as="geometry" />
        </mxCell>
        <mxCell id="-iZUTilEa2WBl7ZFIHIT-276" value="&lt;font style=&quot;font-size: 16px&quot;&gt;Cos&lt;/font&gt;&lt;sub&gt;ij&lt;/sub&gt;" style="shape=partialRectangle;html=1;whiteSpace=wrap;connectable=0;fillColor=none;top=0;left=0;bottom=0;right=0;overflow=hidden;" parent="-iZUTilEa2WBl7ZFIHIT-274" vertex="1">
          <mxGeometry x="128" width="130" height="50" as="geometry" />
        </mxCell>
        <mxCell id="-iZUTilEa2WBl7ZFIHIT-277" value="" style="shape=partialRectangle;html=1;whiteSpace=wrap;connectable=0;fillColor=none;top=0;left=0;bottom=0;right=0;overflow=hidden;" parent="-iZUTilEa2WBl7ZFIHIT-274" vertex="1">
          <mxGeometry x="258" width="128" height="50" as="geometry" />
        </mxCell>
        <mxCell id="r0zvoIGPUsBEDC_ozORA-1" value="" style="edgeStyle=orthogonalEdgeStyle;rounded=0;orthogonalLoop=1;jettySize=auto;html=1;" parent="1" source="r0zvoIGPUsBEDC_ozORA-2" target="r0zvoIGPUsBEDC_ozORA-3" edge="1">
          <mxGeometry relative="1" as="geometry" />
        </mxCell>
        <mxCell id="r0zvoIGPUsBEDC_ozORA-2" value="&lt;font style=&quot;font-size: 16px&quot;&gt;Code&lt;/font&gt;" style="rounded=0;whiteSpace=wrap;html=1;" parent="1" vertex="1">
          <mxGeometry x="872" y="1170" width="126" height="60" as="geometry" />
        </mxCell>
        <mxCell id="r0zvoIGPUsBEDC_ozORA-3" value="" style="shape=partialRectangle;whiteSpace=wrap;html=1;bottom=1;right=1;left=1;top=0;fillColor=none;routingCenterX=-0.5;" parent="1" vertex="1">
          <mxGeometry x="875" y="1107" width="120" height="27" as="geometry" />
        </mxCell>
        <mxCell id="r0zvoIGPUsBEDC_ozORA-4" value="&lt;font style=&quot;font-size: 16px&quot;&gt;Tok&lt;/font&gt;&lt;sub&gt;1&lt;/sub&gt;" style="rounded=1;whiteSpace=wrap;html=1;fillColor=#e1d5e7;strokeColor=#9673a6;" parent="1" vertex="1">
          <mxGeometry x="842" y="1079.5" width="65" height="27" as="geometry" />
        </mxCell>
        <mxCell id="r0zvoIGPUsBEDC_ozORA-5" value="&lt;font style=&quot;font-size: 16px&quot;&gt;Tok&lt;/font&gt;&lt;font style=&quot;font-size: 10px&quot;&gt;&lt;sub&gt;N&lt;/sub&gt;&lt;/font&gt;" style="rounded=1;whiteSpace=wrap;html=1;fillColor=#e1d5e7;strokeColor=#9673a6;" parent="1" vertex="1">
          <mxGeometry x="963" y="1079.5" width="65" height="27" as="geometry" />
        </mxCell>
        <mxCell id="r0zvoIGPUsBEDC_ozORA-6" value="&lt;font style=&quot;font-size: 16px&quot;&gt;[SEP]&lt;/font&gt;" style="rounded=1;whiteSpace=wrap;html=1;fillColor=#e1d5e7;strokeColor=#9673a6;" parent="1" vertex="1">
          <mxGeometry x="1051" y="1080" width="65" height="27" as="geometry" />
        </mxCell>
        <mxCell id="r0zvoIGPUsBEDC_ozORA-7" value="&lt;font style=&quot;font-size: 16px&quot;&gt;[CLS]&lt;/font&gt;" style="rounded=1;whiteSpace=wrap;html=1;fillColor=#e1d5e7;strokeColor=#9673a6;" parent="1" vertex="1">
          <mxGeometry x="765" y="1080" width="65" height="27" as="geometry" />
        </mxCell>
        <mxCell id="r0zvoIGPUsBEDC_ozORA-8" value="&lt;font style=&quot;font-size: 22px&quot;&gt;CodeBert&lt;/font&gt;" style="shape=ext;double=1;rounded=0;whiteSpace=wrap;html=1;fillColor=#ffe6cc;strokeColor=#d79b00;" parent="1" vertex="1">
          <mxGeometry x="753.5" y="903.5" width="374" height="146" as="geometry" />
        </mxCell>
        <mxCell id="r0zvoIGPUsBEDC_ozORA-9" value="&lt;font style=&quot;font-size: 16px&quot;&gt;E&lt;/font&gt;&lt;sub&gt;[CLS]&lt;/sub&gt;" style="rounded=1;whiteSpace=wrap;html=1;fillColor=#f8cecc;strokeColor=#b85450;strokeWidth=1;perimeterSpacing=4;" parent="1" vertex="1">
          <mxGeometry x="765" y="997" width="65" height="27" as="geometry" />
        </mxCell>
        <mxCell id="r0zvoIGPUsBEDC_ozORA-10" value="&lt;font style=&quot;font-size: 16px&quot;&gt;E&lt;/font&gt;&lt;sub&gt;1&lt;/sub&gt;" style="rounded=1;whiteSpace=wrap;html=1;fillColor=#f8cecc;strokeColor=#b85450;strokeWidth=1;perimeterSpacing=4;" parent="1" vertex="1">
          <mxGeometry x="842" y="997" width="65" height="27" as="geometry" />
        </mxCell>
        <mxCell id="r0zvoIGPUsBEDC_ozORA-11" value="&lt;font style=&quot;font-size: 16px&quot;&gt;E&lt;/font&gt;&lt;sub&gt;[SEP]&lt;/sub&gt;" style="rounded=1;whiteSpace=wrap;html=1;fillColor=#f8cecc;strokeColor=#b85450;strokeWidth=1;perimeterSpacing=4;" parent="1" vertex="1">
          <mxGeometry x="1051" y="997" width="65" height="27" as="geometry" />
        </mxCell>
        <mxCell id="r0zvoIGPUsBEDC_ozORA-12" value="&lt;font style=&quot;font-size: 16px&quot;&gt;E&lt;/font&gt;&lt;font style=&quot;font-size: 8.33333px&quot;&gt;&lt;sub&gt;N&lt;/sub&gt;&lt;/font&gt;" style="rounded=1;whiteSpace=wrap;html=1;fillColor=#f8cecc;strokeColor=#b85450;strokeWidth=1;perimeterSpacing=4;" parent="1" vertex="1">
          <mxGeometry x="963" y="997" width="65" height="27" as="geometry" />
        </mxCell>
        <mxCell id="r0zvoIGPUsBEDC_ozORA-13" value="&lt;font style=&quot;font-size: 16px&quot;&gt;C&lt;/font&gt;" style="rounded=1;whiteSpace=wrap;html=1;fillColor=#dae8fc;strokeColor=#6c8ebf;" parent="1" vertex="1">
          <mxGeometry x="765" y="914" width="65" height="27" as="geometry" />
        </mxCell>
        <mxCell id="r0zvoIGPUsBEDC_ozORA-14" value="&lt;font style=&quot;font-size: 16px&quot;&gt;T&lt;/font&gt;&lt;sub style=&quot;font-size: 10px&quot;&gt;1&lt;/sub&gt;" style="rounded=1;whiteSpace=wrap;html=1;fillColor=#dae8fc;strokeColor=#6c8ebf;" parent="1" vertex="1">
          <mxGeometry x="842" y="914" width="65" height="27" as="geometry" />
        </mxCell>
        <mxCell id="r0zvoIGPUsBEDC_ozORA-15" value="&lt;font style=&quot;font-size: 16px&quot;&gt;T&lt;/font&gt;&lt;sub&gt;&lt;font style=&quot;font-size: 10px&quot;&gt;[SEP]&lt;/font&gt;&lt;/sub&gt;" style="rounded=1;whiteSpace=wrap;html=1;fillColor=#dae8fc;strokeColor=#6c8ebf;" parent="1" vertex="1">
          <mxGeometry x="1051" y="914" width="65" height="27" as="geometry" />
        </mxCell>
        <mxCell id="r0zvoIGPUsBEDC_ozORA-16" value="&lt;font style=&quot;font-size: 16px&quot;&gt;T&lt;/font&gt;&lt;font style=&quot;font-size: 10px&quot;&gt;&lt;sub&gt;N&lt;/sub&gt;&lt;/font&gt;" style="rounded=1;whiteSpace=wrap;html=1;fillColor=#dae8fc;strokeColor=#6c8ebf;" parent="1" vertex="1">
          <mxGeometry x="963" y="914" width="65" height="27" as="geometry" />
        </mxCell>
        <mxCell id="r0zvoIGPUsBEDC_ozORA-17" value="&lt;font style=&quot;font-size: 16px&quot;&gt;V&lt;sub&gt;c&lt;/sub&gt;&lt;/font&gt;" style="rounded=0;whiteSpace=wrap;html=1;fillColor=#d5e8d4;strokeColor=#82b366;" parent="1" vertex="1">
          <mxGeometry x="751" y="806.5" width="96" height="53" as="geometry" />
        </mxCell>
        <mxCell id="r0zvoIGPUsBEDC_ozORA-18" value="" style="shape=flexArrow;endArrow=classic;html=1;fillColor=#f8cecc;strokeColor=#b85450;" parent="1" edge="1">
          <mxGeometry width="50" height="50" relative="1" as="geometry">
            <mxPoint x="798.5" y="903.5" as="sourcePoint" />
            <mxPoint x="798.5" y="859.5" as="targetPoint" />
          </mxGeometry>
        </mxCell>
        <mxCell id="r0zvoIGPUsBEDC_ozORA-19" value="" style="shape=flexArrow;endArrow=classic;html=1;" parent="1" edge="1">
          <mxGeometry width="50" height="50" relative="1" as="geometry">
            <mxPoint x="800" y="1074" as="sourcePoint" />
            <mxPoint x="800" y="1030" as="targetPoint" />
          </mxGeometry>
        </mxCell>
        <mxCell id="r0zvoIGPUsBEDC_ozORA-20" value="" style="shape=flexArrow;endArrow=classic;html=1;" parent="1" edge="1">
          <mxGeometry width="50" height="50" relative="1" as="geometry">
            <mxPoint x="875" y="1074" as="sourcePoint" />
            <mxPoint x="875" y="1030" as="targetPoint" />
          </mxGeometry>
        </mxCell>
        <mxCell id="r0zvoIGPUsBEDC_ozORA-21" value="" style="shape=flexArrow;endArrow=classic;html=1;" parent="1" edge="1">
          <mxGeometry width="50" height="50" relative="1" as="geometry">
            <mxPoint x="995" y="1074" as="sourcePoint" />
            <mxPoint x="995" y="1030" as="targetPoint" />
          </mxGeometry>
        </mxCell>
        <mxCell id="r0zvoIGPUsBEDC_ozORA-22" value="" style="shape=flexArrow;endArrow=classic;html=1;" parent="1" edge="1">
          <mxGeometry width="50" height="50" relative="1" as="geometry">
            <mxPoint x="1090" y="1074" as="sourcePoint" />
            <mxPoint x="1090" y="1030" as="targetPoint" />
          </mxGeometry>
        </mxCell>
        <mxCell id="r0zvoIGPUsBEDC_ozORA-23" value="" style="shape=waypoint;sketch=0;size=6;pointerEvents=1;points=[];fillColor=none;resizable=0;rotatable=0;perimeter=centerPerimeter;snapToPoint=1;strokeWidth=1;strokeColor=#787878;" parent="1" vertex="1">
          <mxGeometry x="909.5" y="990.5" width="40" height="40" as="geometry" />
        </mxCell>
        <mxCell id="r0zvoIGPUsBEDC_ozORA-24" value="" style="shape=waypoint;sketch=0;size=6;pointerEvents=1;points=[];fillColor=none;resizable=0;rotatable=0;perimeter=centerPerimeter;snapToPoint=1;strokeWidth=1;strokeColor=#787878;" parent="1" vertex="1">
          <mxGeometry x="920.5" y="990.5" width="40" height="40" as="geometry" />
        </mxCell>
        <mxCell id="r0zvoIGPUsBEDC_ozORA-25" value="" style="shape=waypoint;sketch=0;size=6;pointerEvents=1;points=[];fillColor=none;resizable=0;rotatable=0;perimeter=centerPerimeter;snapToPoint=1;strokeWidth=1;strokeColor=#787878;" parent="1" vertex="1">
          <mxGeometry x="909.5" y="907.5" width="40" height="40" as="geometry" />
        </mxCell>
        <mxCell id="r0zvoIGPUsBEDC_ozORA-26" value="" style="shape=waypoint;sketch=0;size=6;pointerEvents=1;points=[];fillColor=none;resizable=0;rotatable=0;perimeter=centerPerimeter;snapToPoint=1;strokeWidth=1;strokeColor=#787878;" parent="1" vertex="1">
          <mxGeometry x="920.5" y="907.5" width="40" height="40" as="geometry" />
        </mxCell>
        <mxCell id="r0zvoIGPUsBEDC_ozORA-27" value="&lt;font style=&quot;font-size: 17px&quot;&gt;similarity=cos(V&lt;sub&gt;r&lt;/sub&gt;,V&lt;sub&gt;c&lt;/sub&gt;)&lt;/font&gt;" style="rounded=1;whiteSpace=wrap;html=1;fillColor=#fff2cc;strokeColor=#d6b656;" parent="1" vertex="1">
          <mxGeometry x="517" y="766.5" width="176" height="60" as="geometry" />
        </mxCell>
        <mxCell id="r0zvoIGPUsBEDC_ozORA-28" value="" style="endArrow=classic;html=1;entryX=0;entryY=0.5;entryDx=0;entryDy=0;exitX=1;exitY=0.5;exitDx=0;exitDy=0;" parent="1" target="r0zvoIGPUsBEDC_ozORA-27" edge="1" source="-iZUTilEa2WBl7ZFIHIT-59">
          <mxGeometry width="50" height="50" relative="1" as="geometry">
            <mxPoint x="452.5" y="842" as="sourcePoint" />
            <mxPoint x="502.5" y="792" as="targetPoint" />
          </mxGeometry>
        </mxCell>
        <mxCell id="r0zvoIGPUsBEDC_ozORA-29" value="" style="endArrow=classic;html=1;exitX=0;exitY=0.5;exitDx=0;exitDy=0;entryX=1;entryY=0.5;entryDx=0;entryDy=0;" parent="1" source="r0zvoIGPUsBEDC_ozORA-17" target="r0zvoIGPUsBEDC_ozORA-27" edge="1">
          <mxGeometry width="50" height="50" relative="1" as="geometry">
            <mxPoint x="674.5" y="832.5" as="sourcePoint" />
            <mxPoint x="675" y="803" as="targetPoint" />
          </mxGeometry>
        </mxCell>
        <mxCell id="r0zvoIGPUsBEDC_ozORA-30" value="" style="shape=flexArrow;endArrow=classic;html=1;fillColor=#f8cecc;strokeColor=#b85450;" parent="1" edge="1">
          <mxGeometry width="50" height="50" relative="1" as="geometry">
            <mxPoint x="1100" y="738.5" as="sourcePoint" />
            <mxPoint x="1204" y="738.5" as="targetPoint" />
          </mxGeometry>
        </mxCell>
        <mxCell id="r0zvoIGPUsBEDC_ozORA-31" value="&lt;font style=&quot;font-size: 16px&quot;&gt;&lt;b&gt;CodeBert&lt;/b&gt;&lt;/font&gt;" style="rounded=1;whiteSpace=wrap;html=1;strokeColor=#b85450;strokeWidth=1;fillColor=#f8cecc;" parent="1" vertex="1">
          <mxGeometry x="1625.25" y="735.87" width="148.5" height="88" as="geometry" />
        </mxCell>
        <mxCell id="r0zvoIGPUsBEDC_ozORA-32" value="" style="endArrow=classic;html=1;exitX=0.5;exitY=0;exitDx=0;exitDy=0;entryX=0.521;entryY=1.115;entryDx=0;entryDy=0;entryPerimeter=0;" parent="1" source="r0zvoIGPUsBEDC_ozORA-31" target="-iZUTilEa2WBl7ZFIHIT-274" edge="1">
          <mxGeometry width="50" height="50" relative="1" as="geometry">
            <mxPoint x="1672" y="733.25" as="sourcePoint" />
            <mxPoint x="1800.5" y="700.25" as="targetPoint" />
          </mxGeometry>
        </mxCell>
      </root>
    </mxGraphModel>
  </diagram>
</mxfile>
